<?xml version="1.0" encoding="UTF-8" standalone="no"?>
<svg
   xmlns:dc="http://purl.org/dc/elements/1.1/"
   xmlns:cc="http://creativecommons.org/ns#"
   xmlns:rdf="http://www.w3.org/1999/02/22-rdf-syntax-ns#"
   xmlns:svg="http://www.w3.org/2000/svg"
   xmlns="http://www.w3.org/2000/svg"
   xmlns:sodipodi="http://sodipodi.sourceforge.net/DTD/sodipodi-0.dtd"
   xmlns:inkscape="http://www.inkscape.org/namespaces/inkscape"
   height="130mm"
   viewBox="0 -29 396.85039 367.78419"
   width="140mm"
   version="1.1"
   id="svg869"
   sodipodi:docname="1desenho.svg"
   inkscape:version="1.0beta1 (32d4812, 2019-09-19)">
  <metadata
     id="metadata875">
    <rdf:RDF>
      <cc:Work
         rdf:about="">
        <dc:format>image/svg+xml</dc:format>
        <dc:type
           rdf:resource="http://purl.org/dc/dcmitype/StillImage" />
        <dc:title />
      </cc:Work>
    </rdf:RDF>
  </metadata>
  <defs
     id="defs873" />
  <sodipodi:namedview
     pagecolor="#ffffff"
     bordercolor="#666666"
     inkscape:document-rotation="0"
     borderopacity="1"
     objecttolerance="10"
     gridtolerance="10"
     guidetolerance="10"
     inkscape:pageopacity="0"
     inkscape:pageshadow="2"
     inkscape:window-width="1600"
     inkscape:window-height="907"
     id="namedview871"
     showgrid="false"
     units="mm"
     inkscape:zoom="0.35"
     inkscape:cx="400"
     inkscape:cy="560"
     inkscape:window-x="0"
     inkscape:window-y="23"
     inkscape:window-maximized="0"
     inkscape:current-layer="svg869" />
  <rect
     y="-29.387554"
     x="1.1368684e-13"
     height="368.50394"
     width="396.8504"
     id="rect856"
     style="fill:#ffffff;stroke-width:0.700098" />
  <g
     id="g895"
     transform="matrix(0.62007872,0,0,0.62007872,39.685049,14.15741)">
    <path
       id="path833"
       d="m 494.5,129.375 h -80.11719 l 47.83985,-53.257812 c 2.65625,-2.960938 4.0039,-6.773438 3.79297,-10.742188 -0.21485,-3.972656 -1.96094,-7.621094 -4.91797,-10.277344 L 440.52344,36.621094 c -6.10547,-5.484375 -15.53516,-4.980469 -21.01563,1.125 L 337.19922,129.375 h -143.25 c -4.14063,0 -7.5,3.35547 -7.5,7.5 0,4.14453 3.35937,7.5 7.5,7.5 h 129.77734 l -33.46093,37.25 c -2.65625,2.95703 -4,6.77344 -3.78907,10.74219 0.0274,0.46875 0.0742,0.92968 0.14063,1.39062 l -11.5,31.09766 c -1.70703,4.61719 -0.44531,9.72656 3.21875,13.01562 2.24609,2.01953 5.08203,3.06641 7.95312,3.06641 1.80469,0 3.625,-0.41406 5.32813,-1.25781 l 29.71484,-14.77344 c 0.1875,0.008 0.3711,0.0273 0.5625,0.0273 0.26953,0 0.53906,-0.008 0.8125,-0.0234 3.96875,-0.21485 7.61719,-1.95704 10.27734,-4.91797 L 400.91016,144.375 H 494.5 c 1.37891,0 2.5,1.12109 2.5,2.5 v 288.96094 c 0,1.3789 -1.12109,2.5 -2.5,2.5 h -54.5625 c -4.14063,0 -7.5,3.35547 -7.5,7.5 0,4.14062 3.35937,7.5 7.5,7.5 H 494.5 c 9.64844,0 17.5,-7.85157 17.5,-17.5 V 146.875 c 0,-9.65234 -7.85156,-17.5 -17.5,-17.5 z m -43.51172,-63.195312 -8.91016,9.914062 -20.39843,-18.320312 8.91015,-9.917969 z m -39.33203,2.753906 4.62109,4.148437 -110.15234,122.628909 -4.62109,-4.15235 z m -114.30859,139.054686 8.66406,7.78516 -14.14063,7.02734 z m 24.55468,1.89453 -4.62109,-4.14844 110.15625,-122.628901 4.61719,4.148437 z m 0,0"
       inkscape:connector-curvature="0" />
    <path
       id="path835"
       d="M 407.27734,438.33594 H 69.945312 C 39.648438,438.33594 15,413.6875 15,383.39062 v -3.96484 c 0,-30.29687 24.644531,-54.94141 54.941406,-54.94141 h 15.414063 c 9.652343,0 17.500001,-7.85156 17.500001,-17.5 V 144.375 h 58.43359 c 4.14453,0 7.5,-3.35938 7.5,-7.5 0,-4.14453 -3.35547,-7.5 -7.5,-7.5 h -58.43359 v -26.04297 c 0,-4.140624 -3.35547,-7.499999 -7.500001,-7.499999 -4.140625,0 -7.5,3.359375 -7.5,7.499999 v 203.65234 c 0,1.37891 -1.121094,2.5 -2.5,2.5 H 69.941406 c -22.257812,0 -42.125,10.45313 -54.941406,26.70704 V 70.445312 C 15,40.148438 39.648438,15.5 69.945312,15.5 h 15.410157 c 1.378906,0 2.5,1.121094 2.5,2.5 v 52.671875 c 0,4.144531 3.359375,7.5 7.5,7.5 4.144531,0 7.500001,-3.355469 7.500001,-7.5 V 18 c 0,-9.648438 -7.847658,-17.5 -17.500001,-17.5 H 69.945312 C 31.378906,0.5 0,31.875 0,70.445312 V 383.39062 c 0,38.56641 31.378906,69.94532 69.945312,69.94532 H 407.27734 c 4.14453,0 7.5,-3.35938 7.5,-7.5 0,-4.14453 -3.35547,-7.5 -7.5,-7.5 z m 0,0"
       inkscape:connector-curvature="0" />
    <path
       id="path837"
       d="m 400.19531,208.55469 c -30.63672,0 -55.75781,24.01562 -57.55469,54.20703 h -34.52734 c -4.14062,0 -7.5,3.35937 -7.5,7.5 v 85.67187 c 0,4.14453 3.35938,7.5 7.5,7.5 h 85.67188 c 4.14453,0 7.5,-3.35547 7.5,-7.5 v -32.0625 c 31.30078,-0.58593 56.58203,-26.21093 56.58203,-57.64453 0,-31.80078 -25.8711,-57.67187 -57.67188,-57.67187 z m -13.90625,98.0039 c -13.13672,-4.54297 -23.3789,-15.32812 -27.16406,-28.79687 h 27.16406 z m -70.67578,41.875 v -70.67187 h 28.07422 c 4.4375,21.76562 21.17187,39.10156 42.60156,44.42969 v 26.24218 z m 85.67578,-39.5625 v -38.60937 c 0,-4.14063 -3.35937,-7.5 -7.5,-7.5 h -36.10937 c 1.76953,-21.91406 20.15625,-39.20703 42.51953,-39.20703 23.52734,0 42.67187,19.14062 42.67187,42.67187 -0.004,23.16406 -18.55859,42.0625 -41.58203,42.64453 z m 0,0"
       inkscape:connector-curvature="0" />
    <path
       id="path839"
       d="m 428.05859,329.07812 c -4.14453,0 -7.5,3.35547 -7.5,7.5 0,4.14063 3.35547,7.5 7.5,7.5 h 16.6836 c 4.14453,0 7.5,-3.35937 7.5,-7.5 0,-4.14453 -3.35547,-7.5 -7.5,-7.5 z m 0,0"
       inkscape:connector-curvature="0" />
    <path
       id="path841"
       d="m 452.24219,355.93359 c 0,-4.14062 -3.35547,-7.5 -7.5,-7.5 h -16.6836 c -4.14453,0 -7.5,3.35938 -7.5,7.5 0,4.14453 3.35547,7.5 7.5,7.5 h 16.6836 c 4.14453,0 7.5,-3.35547 7.5,-7.5 z m 0,0"
       inkscape:connector-curvature="0" />
    <path
       id="path843"
       d="m 137,205.56641 h 12 c 4.14062,0 7.5,-3.35547 7.5,-7.5 0,-4.14063 -3.35938,-7.5 -7.5,-7.5 h -12 c -4.14063,0 -7.5,3.35937 -7.5,7.5 0,4.14453 3.35937,7.5 7.5,7.5 z m 0,0"
       inkscape:connector-curvature="0" />
    <path
       id="path845"
       d="m 137,227.41797 h 57.89453 c 4.14453,0 7.5,-3.35938 7.5,-7.5 0,-4.14453 -3.35547,-7.5 -7.5,-7.5 H 137 c -4.14063,0 -7.5,3.35547 -7.5,7.5 0,4.14062 3.35937,7.5 7.5,7.5 z m 0,0"
       inkscape:connector-curvature="0" />
    <path
       id="path847"
       d="m 182.89453,205.56641 h 12 c 4.14453,0 7.5,-3.35547 7.5,-7.5 0,-4.14063 -3.35547,-7.5 -7.5,-7.5 h -12 c -4.14062,0 -7.5,3.35937 -7.5,7.5 0,4.14453 3.35938,7.5 7.5,7.5 z m 0,0"
       inkscape:connector-curvature="0" />
    <path
       id="path849"
       d="m 240.78906,190.56641 h -12 c -4.14062,0 -7.5,3.35937 -7.5,7.5 0,4.14453 3.35938,7.5 7.5,7.5 h 12 c 4.14453,0 7.5,-3.35547 7.5,-7.5 0,-4.14063 -3.35547,-7.5 -7.5,-7.5 z m 0,0"
       inkscape:connector-curvature="0" />
    <path
       id="path851"
       d="m 137,249.10547 h 57.89453 c 4.14453,0 7.5,-3.35938 7.5,-7.5 0,-4.14453 -3.35547,-7.5 -7.5,-7.5 H 137 c -4.14063,0 -7.5,3.35547 -7.5,7.5 0,4.14062 3.35937,7.5 7.5,7.5 z m 0,0"
       inkscape:connector-curvature="0" />
    <path
       id="path853"
       d="m 129.5,263.28906 c 0,4.14453 3.35937,7.5 7.5,7.5 h 91.78906 c 4.14453,0 7.5,-3.35547 7.5,-7.5 0,-4.14062 -3.35547,-7.5 -7.5,-7.5 H 137 c -4.14063,0 -7.5,3.35938 -7.5,7.5 z m 0,0"
       inkscape:connector-curvature="0" />
    <path
       id="path855"
       d="m 248.28906,284.97656 c 0,-4.14062 -3.35547,-7.5 -7.5,-7.5 H 137 c -4.14063,0 -7.5,3.35938 -7.5,7.5 0,4.14453 3.35937,7.5 7.5,7.5 h 103.78906 c 4.14453,0 7.5,-3.35547 7.5,-7.5 z m 0,0"
       inkscape:connector-curvature="0" />
    <path
       id="path857"
       d="m 165.16797,319.91797 c 0,-4.14453 -3.35938,-7.5 -7.5,-7.5 H 137 c -4.14063,0 -7.5,3.35547 -7.5,7.5 v 20.66406 c 0,4.14453 3.35937,7.5 7.5,7.5 h 20.66797 c 4.14062,0 7.5,-3.35547 7.5,-7.5 z m -15,13.16797 H 144.5 v -5.66797 h 5.66797 z m 0,0"
       inkscape:connector-curvature="0" />
    <path
       id="path859"
       d="m 214.75391,319.91797 c 0,-4.14453 -3.35938,-7.5 -7.5,-7.5 h -20.66797 c -4.14063,0 -7.5,3.35547 -7.5,7.5 v 20.66406 c 0,4.14453 3.35937,7.5 7.5,7.5 h 20.66797 c 4.14062,0 7.5,-3.35547 7.5,-7.5 z m -15,13.16797 h -5.66797 v -5.66797 h 5.66797 z m 0,0"
       inkscape:connector-curvature="0" />
    <path
       id="path861"
       d="m 264.34375,319.91797 c 0,-4.14453 -3.35938,-7.5 -7.5,-7.5 h -20.66797 c -4.14453,0 -7.5,3.35547 -7.5,7.5 v 20.66406 c 0,4.14453 3.35547,7.5 7.5,7.5 h 20.66797 c 4.14062,0 7.5,-3.35547 7.5,-7.5 z m -15,13.16797 h -5.66797 v -5.66797 h 5.66797 z m 0,0"
       inkscape:connector-curvature="0" />
    <path
       id="path863"
       d="M 157.66797,365.08594 H 137 c -4.14063,0 -7.5,3.35547 -7.5,7.5 V 393.25 c 0,4.14453 3.35937,7.5 7.5,7.5 h 20.66797 c 4.14062,0 7.5,-3.35547 7.5,-7.5 v -20.66406 c 0,-4.14453 -3.35938,-7.5 -7.5,-7.5 z m -7.5,20.66406 H 144.5 v -5.66797 h 5.66797 z m 0,0"
       inkscape:connector-curvature="0" />
    <path
       id="path865"
       d="m 207.25391,365.08594 h -20.66797 c -4.14063,0 -7.5,3.35547 -7.5,7.5 V 393.25 c 0,4.14453 3.35937,7.5 7.5,7.5 h 20.66797 c 4.14062,0 7.5,-3.35547 7.5,-7.5 v -20.66406 c 0,-4.14453 -3.35938,-7.5 -7.5,-7.5 z m -7.5,20.66406 h -5.66797 v -5.66797 h 5.66797 z m 0,0"
       inkscape:connector-curvature="0" />
    <path
       id="path867"
       d="m 236.17578,400.75 h 20.66797 c 4.14062,0 7.5,-3.35547 7.5,-7.5 v -20.66797 c 0,-4.14062 -3.35938,-7.5 -7.5,-7.5 h -20.66797 c -4.14453,0 -7.5,3.35938 -7.5,7.5 V 393.25 c 0,4.14453 3.35547,7.5 7.5,7.5 z m 7.5,-20.66406 h 5.66797 V 385.75 h -5.66797 z m 0,0"
       inkscape:connector-curvature="0" />
  </g>
</svg>
