<?xml version="1.0" encoding="UTF-8" standalone="no"?>
<svg
   xmlns:dc="http://purl.org/dc/elements/1.1/"
   xmlns:cc="http://creativecommons.org/ns#"
   xmlns:rdf="http://www.w3.org/1999/02/22-rdf-syntax-ns#"
   xmlns:svg="http://www.w3.org/2000/svg"
   xmlns="http://www.w3.org/2000/svg"
   xmlns:sodipodi="http://sodipodi.sourceforge.net/DTD/sodipodi-0.dtd"
   xmlns:inkscape="http://www.inkscape.org/namespaces/inkscape"
   width="140mm"
   height="140mm"
   viewBox="0 0 140 140"
   version="1.1"
   id="svg8"
   inkscape:version="1.0beta1 (32d4812, 2019-09-19)"
   sodipodi:docname="4analises.svg">
  <defs
     id="defs2" />
  <sodipodi:namedview
     id="base"
     pagecolor="#ffffff"
     bordercolor="#666666"
     borderopacity="1.0"
     inkscape:pageopacity="0.0"
     inkscape:pageshadow="2"
     inkscape:zoom="0.35"
     inkscape:cx="400"
     inkscape:cy="560"
     inkscape:document-units="mm"
     inkscape:current-layer="layer1"
     inkscape:document-rotation="0"
     showgrid="false"
     inkscape:window-width="1600"
     inkscape:window-height="907"
     inkscape:window-x="0"
     inkscape:window-y="23"
     inkscape:window-maximized="0" />
  <metadata
     id="metadata5">
    <rdf:RDF>
      <cc:Work
         rdf:about="">
        <dc:format>image/svg+xml</dc:format>
        <dc:type
           rdf:resource="http://purl.org/dc/dcmitype/StillImage" />
        <dc:title />
      </cc:Work>
    </rdf:RDF>
  </metadata>
  <g
     inkscape:label="Camada 1"
     inkscape:groupmode="layer"
     id="layer1">
    <rect
       y="0"
       x="0"
       height="140"
       width="140"
       id="rect874"
       style="fill:#ffffff;stroke-width:0.27569" />
    <g
       transform="matrix(0.8,0,0,0.8,14,14)"
       id="g1065">
      <g
         transform="translate(-30.70417,-149.47084)"
         id="g1010">
        <rect
           style="fill:#ffffff;fill-rule:evenodd;stroke-width:0.274373"
           id="rect941"
           width="140"
           height="140"
           x="30.70417"
           y="149.47084" />
        <g
           style="opacity:1;stop-opacity:1"
           id="g837"
           transform="matrix(0.26458333,0,0,0.26458333,32.808339,151.49286)">
          <g
             id="g835">
            <path
               inkscape:connector-curvature="0"
               d="m 502,208.749 h -64 c -5.523,0 -10,4.478 -10,10 v 50.5 c 0,5.522 4.477,10 10,10 5.523,0 10,-4.478 10,-10 v -40.5 h 44 V 492 H 470 448 V 344.249 c 0,-5.522 -4.477,-10 -10,-10 -5.523,0 -10,4.478 -10,10 V 492 H 408 V 285 c 0,-5.522 -4.477,-10 -10,-10 h -64 c -5.523,0 -10,4.478 -10,10 V 492 H 304 V 355 c 0,-5.522 -4.477,-10 -10,-10 h -64 c -5.523,0 -10,4.478 -10,10 v 137 h -20 v -79.625 c 0,-5.522 -4.477,-10 -10,-10 h -64 c -5.523,0 -10,4.478 -10,10 V 492 H 30 c -5.514,0 -10,-4.486 -10,-10 V 30 c 0,-5.514 4.486,-10 10,-10 h 257.975 v 66.003 c 0,16.542 13.458,30 30,30 h 66 V 239 c 0,5.522 4.477,10 10,10 5.523,0 10,-4.478 10,-10 V 106.003 c 0,-2.652 -1.054,-5.195 -2.929,-7.071 l -96,-96.003 C 303.17,1.054 300.627,0 297.975,0 H 30 C 13.458,0 0,13.458 0,30 v 452 c 0,16.542 13.458,30 30,30 h 472 c 5.523,0 10,-4.478 10,-10 V 218.749 c 0,-5.522 -4.477,-10 -10,-10 z M 307.975,34.143 l 61.859,61.86 h -51.859 c -5.515,0 -10,-4.486 -10,-10 z M 180,492 h -44 v -69.625 h 44 z m 104,0 H 240 V 365 h 44 z m 104,0 H 344 V 295 h 44 z"
               id="path833" />
          </g>
        </g>
        <g
           style="opacity:1;stop-opacity:1"
           id="g843"
           transform="matrix(0.26458333,0,0,0.26458333,32.808339,151.49286)">
          <g
             id="g841">
            <path
               inkscape:connector-curvature="0"
               d="m 445.07,297.82 c -1.86,-1.869 -4.44,-2.93 -7.07,-2.93 -2.63,0 -5.21,1.061 -7.07,2.93 -1.86,1.86 -2.93,4.44 -2.93,7.07 0,2.63 1.07,5.21 2.93,7.07 1.86,1.859 4.44,2.93 7.07,2.93 2.63,0 5.21,-1.07 7.07,-2.93 1.86,-1.86 2.93,-4.44 2.93,-7.07 0,-2.63 -1.07,-5.21 -2.93,-7.07 z"
               id="path839" />
          </g>
        </g>
        <g
           style="opacity:1;stop-opacity:1"
           id="g849"
           transform="matrix(0.26458333,0,0,0.26458333,32.808339,151.49286)">
          <g
             id="g847">
            <path
               inkscape:connector-curvature="0"
               d="m 145.577,54.729 c -5.523,0 -10,4.478 -10,10 v 17.989 c -46.031,4.997 -81.975,44.097 -81.975,91.435 0,50.715 41.26,91.975 91.975,91.975 47.338,0 86.438,-35.943 91.435,-81.975 H 255 c 5.523,0 10,-4.478 10,-10 C 265,108.302 211.427,54.729 145.577,54.729 Z m 0,191.398 c -39.687,0 -71.975,-32.288 -71.975,-71.975 0,-36.293 27.005,-66.399 61.975,-71.282 v 71.282 c 0,5.522 4.477,10 10,10 h 71.282 c -4.883,34.97 -34.989,61.975 -71.282,61.975 z m 10,-81.974 v -0.001 -88.924 c 46.852,4.702 84.222,42.073 88.924,88.925 z"
               id="path845" />
          </g>
        </g>
        <g
           style="opacity:1;stop-opacity:1"
           id="g855"
           transform="matrix(0.26458333,0,0,0.26458333,32.808339,151.49286)">
          <g
             id="g853">
            <path
               inkscape:connector-curvature="0"
               d="M 255,294.25 H 64 c -5.523,0 -10,4.478 -10,10 0,5.522 4.477,10 10,10 h 191 c 5.523,0 10,-4.478 10,-10 0,-5.522 -4.477,-10 -10,-10 z"
               id="path851" />
          </g>
        </g>
        <g
           style="opacity:1;stop-opacity:1"
           id="g861"
           transform="matrix(0.26458333,0,0,0.26458333,32.808339,151.49286)">
          <g
             id="g859">
            <path
               inkscape:connector-curvature="0"
               d="M 128,342.5 H 64 c -5.523,0 -10,4.478 -10,10 0,5.522 4.477,10 10,10 h 64 c 5.523,0 10,-4.478 10,-10 0,-5.522 -4.477,-10 -10,-10 z"
               id="path857" />
          </g>
        </g>
        <g
           style="opacity:1;stop-opacity:1"
           id="g867"
           transform="matrix(0.26458333,0,0,0.26458333,32.808339,151.49286)">
          <g
             id="g865">
            <path
               inkscape:connector-curvature="0"
               d="m 185.15,345.43 c -1.86,-1.86 -4.44,-2.93 -7.07,-2.93 -2.64,0 -5.21,1.069 -7.07,2.93 -1.87,1.86 -2.93,4.44 -2.93,7.07 0,2.63 1.06,5.21 2.93,7.069 1.86,1.86 4.43,2.931 7.07,2.931 2.63,0 5.21,-1.07 7.07,-2.931 1.86,-1.859 2.93,-4.439 2.93,-7.069 0,-2.63 -1.07,-5.21 -2.93,-7.07 z"
               id="path863" />
          </g>
        </g>
        <g
           style="opacity:1;stop-opacity:1"
           id="g869"
           transform="matrix(0.26458333,0,0,0.26458333,32.808339,151.49286)" />
        <g
           style="opacity:1;stop-opacity:1"
           id="g871"
           transform="matrix(0.26458333,0,0,0.26458333,32.808339,151.49286)" />
        <g
           style="opacity:1;stop-opacity:1"
           id="g873"
           transform="matrix(0.26458333,0,0,0.26458333,32.808339,151.49286)" />
        <g
           style="opacity:1;stop-opacity:1"
           id="g875"
           transform="matrix(0.26458333,0,0,0.26458333,32.808339,151.49286)" />
        <g
           style="opacity:1;stop-opacity:1"
           id="g877"
           transform="matrix(0.26458333,0,0,0.26458333,32.808339,151.49286)" />
        <g
           style="opacity:1;stop-opacity:1"
           id="g879"
           transform="matrix(0.26458333,0,0,0.26458333,32.808339,151.49286)" />
        <g
           style="opacity:1;stop-opacity:1"
           id="g881"
           transform="matrix(0.26458333,0,0,0.26458333,32.808339,151.49286)" />
        <g
           style="opacity:1;stop-opacity:1"
           id="g883"
           transform="matrix(0.26458333,0,0,0.26458333,32.808339,151.49286)" />
        <g
           style="opacity:1;stop-opacity:1"
           id="g885"
           transform="matrix(0.26458333,0,0,0.26458333,32.808339,151.49286)" />
        <g
           style="opacity:1;stop-opacity:1"
           id="g887"
           transform="matrix(0.26458333,0,0,0.26458333,32.808339,151.49286)" />
        <g
           style="opacity:1;stop-opacity:1"
           id="g889"
           transform="matrix(0.26458333,0,0,0.26458333,32.808339,151.49286)" />
        <g
           style="opacity:1;stop-opacity:1"
           id="g891"
           transform="matrix(0.26458333,0,0,0.26458333,32.808339,151.49286)" />
        <g
           style="opacity:1;stop-opacity:1"
           id="g893"
           transform="matrix(0.26458333,0,0,0.26458333,32.808339,151.49286)" />
        <g
           style="opacity:1;stop-opacity:1"
           id="g895"
           transform="matrix(0.26458333,0,0,0.26458333,32.808339,151.49286)" />
        <g
           style="opacity:1;stop-opacity:1"
           id="g897"
           transform="matrix(0.26458333,0,0,0.26458333,32.808339,151.49286)" />
      </g>
    </g>
  </g>
</svg>
