<?xml version="1.0" encoding="UTF-8" standalone="no"?>
<svg
   xmlns:dc="http://purl.org/dc/elements/1.1/"
   xmlns:cc="http://creativecommons.org/ns#"
   xmlns:rdf="http://www.w3.org/1999/02/22-rdf-syntax-ns#"
   xmlns:svg="http://www.w3.org/2000/svg"
   xmlns="http://www.w3.org/2000/svg"
   xmlns:sodipodi="http://sodipodi.sourceforge.net/DTD/sodipodi-0.dtd"
   xmlns:inkscape="http://www.inkscape.org/namespaces/inkscape"
   inkscape:version="1.0beta1 (32d4812, 2019-09-19)"
   height="140mm"
   width="140mm"
   sodipodi:docname="2checklist.svg"
   xml:space="preserve"
   viewBox="0 0 529.13389 529.13389"
   y="0px"
   x="0px"
   id="Capa_1"
   version="1.1"><metadata
   id="metadata946">
  <rdf:RDF>
    <cc:Work
   rdf:about="">
      <dc:format>image/svg+xml</dc:format>


      <dc:type
   rdf:resource="http://purl.org/dc/dcmitype/StillImage" />


      <dc:title />


    </cc:Work>


  </rdf:RDF>


</metadata>


<defs
   id="defs944" />


<sodipodi:namedview
   inkscape:current-layer="Capa_1"
   inkscape:window-maximized="0"
   inkscape:window-y="23"
   inkscape:window-x="0"
   inkscape:cy="560"
   inkscape:cx="400"
   inkscape:zoom="0.35"
   units="mm"
   showgrid="false"
   id="namedview942"
   inkscape:window-height="907"
   inkscape:window-width="1600"
   inkscape:pageshadow="2"
   inkscape:pageopacity="0"
   guidetolerance="10"
   gridtolerance="10"
   objecttolerance="10"
   borderopacity="1"
   inkscape:document-rotation="0"
   bordercolor="#666666"
   pagecolor="#ffffff" />



<rect
   y="0"
   x="0"
   height="529.13385"
   width="529.13385"
   id="rect948"
   style="fill:#ffffff;stroke-width:1.07516" />


























<g
   id="g932"
   transform="matrix(0.8,0,0,0.8,59.766925,59.766925)">
  <g
   id="g837">
	<g
   id="g835">
		<path
   d="m 362.937,0 h -294 c -16.542,0 -30,13.458 -30,30 v 102 c 0,5.523 4.478,10 10,10 5.522,0 10,-4.477 10,-10 V 30 c 0,-5.514 4.486,-10 10,-10 h 294 c 5.514,0 10,4.486 10,10 v 372 c 0,5.514 -4.486,10 -10,10 h -294 c -5.514,0 -10,-4.486 -10,-10 V 216.333 c 0,-5.523 -4.478,-10 -10,-10 -5.522,0 -10,4.477 -10,10 V 402 c 0,16.542 13.458,30 30,30 h 294 c 16.542,0 30,-13.458 30,-30 V 30 c 0,-16.542 -13.458,-30 -30,-30 z"
   id="path833"
   inkscape:connector-curvature="0" />



	</g>



</g>

  <g
   id="g843">
	<g
   id="g841">
		<path
   d="m 56.006,169.7 c -1.859,-1.86 -4.439,-2.92 -7.069,-2.92 -2.63,0 -5.21,1.06 -7.07,2.92 -1.861,1.87 -2.93,4.45 -2.93,7.07 0,2.64 1.07,5.21 2.93,7.08 1.86,1.86 4.44,2.93 7.07,2.93 2.629,0 5.209,-1.07 7.069,-2.93 1.861,-1.86 2.931,-4.44 2.931,-7.08 0,-2.63 -1.071,-5.2 -2.931,-7.07 z"
   id="path839"
   inkscape:connector-curvature="0" />



	</g>



</g>

  <g
   id="g849">
	<g
   id="g847">
		<path
   d="m 96.066,454.99 c -1.86,-1.86 -4.429,-2.93 -7.07,-2.93 -2.63,0 -5.21,1.07 -7.069,2.93 -1.861,1.86 -2.931,4.44 -2.931,7.07 0,2.64 1.071,5.21 2.931,7.07 1.859,1.87 4.439,2.93 7.069,2.93 2.641,0 5.21,-1.06 7.07,-2.93 1.861,-1.86 2.93,-4.43 2.93,-7.07 0,-2.63 -1.07,-5.21 -2.93,-7.07 z"
   id="path845"
   inkscape:connector-curvature="0" />



	</g>



</g>

  <g
   id="g855">
	<g
   id="g853">
		<path
   d="m 423,40.063 c -5.522,0 -10,4.477 -10,10 v 392 c 0,5.514 -4.486,10 -10,10 H 129 c -5.522,0 -10,4.477 -10,10 0,5.523 4.478,10 10,10 h 274 c 16.542,0 30,-13.458 30,-30 v -392 c 0,-5.523 -4.478,-10 -10,-10 z"
   id="path851"
   inkscape:connector-curvature="0" />



	</g>



</g>

  <g
   id="g861">
	<g
   id="g859">
		<path
   d="m 463.063,80 c -5.522,0 -10,4.477 -10,10 v 392 c 0,5.514 -4.486,10 -10,10 h -314 c -5.522,0 -10,4.477 -10,10 0,5.523 4.478,10 10,10 h 314 c 16.542,0 30,-13.458 30,-30 V 90 c 0,-5.523 -4.478,-10 -10,-10 z"
   id="path857"
   inkscape:connector-curvature="0" />



	</g>



</g>

  <g
   id="g867">
	<g
   id="g865">
		<path
   d="m 200.937,74 h -96 c -5.522,0 -10,4.477 -10,10 v 96 c 0,5.523 4.478,10 10,10 h 96 c 5.522,0 10,-4.477 10,-10 V 84 c 0,-5.523 -4.478,-10 -10,-10 z m -10,96 h -76 V 94 h 76 z"
   id="path863"
   inkscape:connector-curvature="0" />



	</g>



</g>

  <g
   id="g873">
	<g
   id="g871">
		<path
   d="m 168.761,235.402 c -3.906,-3.904 -10.236,-3.905 -14.143,0 l -26.583,26.583 -12.36,-12.361 c -3.905,-3.905 -10.235,-3.904 -14.143,0 -3.905,3.905 -3.905,10.237 0,14.142 l 19.432,19.432 c 1.876,1.875 4.419,2.929 7.071,2.929 2.653,0 5.195,-1.054 7.072,-2.929 l 33.654,-33.654 c 3.905,-3.905 3.905,-10.237 0,-14.142 z"
   id="path869"
   inkscape:connector-curvature="0" />



	</g>



</g>

  <g
   id="g879">
	<g
   id="g877">
		<path
   d="M 332.604,249 H 215.937 c -5.522,0 -10,4.477 -10,10 0,5.523 4.478,10 10,10 h 116.667 c 5.522,0 10,-4.477 10,-10 0,-5.523 -4.478,-10 -10,-10 z"
   id="path875"
   inkscape:connector-curvature="0" />



	</g>



</g>

  <g
   id="g885">
	<g
   id="g883">
		<path
   d="m 326.937,74 h -70 c -5.522,0 -10,4.477 -10,10 0,5.523 4.478,10 10,10 h 70 c 5.522,0 10,-4.477 10,-10 0,-5.523 -4.478,-10 -10,-10 z"
   id="path881"
   inkscape:connector-curvature="0" />



	</g>



</g>

  <g
   id="g891">
	<g
   id="g889">
		<path
   d="m 326.937,122 h -70 c -5.522,0 -10,4.477 -10,10 0,5.523 4.478,10 10,10 h 70 c 5.522,0 10,-4.477 10,-10 0,-5.523 -4.478,-10 -10,-10 z"
   id="path887"
   inkscape:connector-curvature="0" />



	</g>



</g>

  <g
   id="g897">
	<g
   id="g895">
		<path
   d="m 326.937,170 h -70 c -5.522,0 -10,4.477 -10,10 0,5.523 4.478,10 10,10 h 70 c 5.522,0 10,-4.477 10,-10 0,-5.523 -4.478,-10 -10,-10 z"
   id="path893"
   inkscape:connector-curvature="0" />



	</g>



</g>

  <g
   id="g903">
	<g
   id="g901">
		<path
   d="m 168.761,311.769 c -3.906,-3.904 -10.236,-3.905 -14.143,0 l -26.583,26.583 -12.36,-12.361 c -3.905,-3.905 -10.235,-3.904 -14.143,0 -3.905,3.905 -3.905,10.237 0,14.142 l 19.432,19.432 c 1.876,1.875 4.419,2.929 7.071,2.929 2.653,0 5.195,-1.054 7.072,-2.929 l 33.654,-33.654 c 3.905,-3.905 3.905,-10.237 0,-14.142 z"
   id="path899"
   inkscape:connector-curvature="0" />



	</g>



</g>

  <g
   id="g909">
	<g
   id="g907">
		<path
   d="M 332.604,325 H 215.937 c -5.522,0 -10,4.477 -10,10 0,5.523 4.478,10 10,10 h 116.667 c 5.522,0 10,-4.477 10,-10 0,-5.523 -4.478,-10 -10,-10 z"
   id="path905"
   inkscape:connector-curvature="0" />



	</g>



</g>

</g>



<g
   id="g911">
</g>



<g
   id="g913">
</g>



<g
   id="g915">
</g>



<g
   id="g917">
</g>



<g
   id="g919">
</g>



<g
   id="g921">
</g>



<g
   id="g923">
</g>



<g
   id="g925">
</g>



<g
   id="g927">
</g>



<g
   id="g929">
</g>



<g
   id="g931">
</g>



<g
   id="g933">
</g>



<g
   id="g935">
</g>



<g
   id="g937">
</g>



<g
   id="g939">
</g>



</svg>
