<?xml version="1.0" encoding="UTF-8" standalone="no"?>
<svg
   xmlns:dc="http://purl.org/dc/elements/1.1/"
   xmlns:cc="http://creativecommons.org/ns#"
   xmlns:rdf="http://www.w3.org/1999/02/22-rdf-syntax-ns#"
   xmlns:svg="http://www.w3.org/2000/svg"
   xmlns="http://www.w3.org/2000/svg"
   xmlns:sodipodi="http://sodipodi.sourceforge.net/DTD/sodipodi-0.dtd"
   xmlns:inkscape="http://www.inkscape.org/namespaces/inkscape"
   inkscape:version="1.0beta1 (32d4812, 2019-09-19)"
   height="130mm"
   width="140mm"
   sodipodi:docname="3analises.svg"
   id="svg841"
   enable-background="new 0 0 470 470"
   viewBox="0 0 529.1339 491.33862"
   version="1.1">
  <metadata
     id="metadata847">
    <rdf:RDF>
      <cc:Work
         rdf:about="">
        <dc:format>image/svg+xml</dc:format>
        <dc:type
           rdf:resource="http://purl.org/dc/dcmitype/StillImage" />
        <dc:title />
      </cc:Work>
    </rdf:RDF>
  </metadata>
  <defs
     id="defs845" />
  <sodipodi:namedview
     inkscape:current-layer="svg841"
     inkscape:window-maximized="0"
     inkscape:window-y="23"
     inkscape:window-x="0"
     inkscape:cy="560"
     inkscape:cx="400"
     inkscape:zoom="0.35"
     units="mm"
     showgrid="false"
     id="namedview843"
     inkscape:window-height="907"
     inkscape:window-width="1600"
     inkscape:pageshadow="2"
     inkscape:pageopacity="0"
     guidetolerance="10"
     gridtolerance="10"
     objecttolerance="10"
     borderopacity="1"
     inkscape:document-rotation="0"
     bordercolor="#666666"
     pagecolor="#ffffff" />
  <rect
     y="0"
     x="0"
     height="491.33859"
     width="529.13385"
     id="rect849"
     style="fill:#ffffff;stroke-width:1.05389" />
  <g
     transform="matrix(0.8,0,0,0.8,76.566925,57.669296)"
     id="g839">
    <path
       inkscape:connector-curvature="0"
       id="path833"
       d="M 462.5,425 H 45 V 7.5 C 45,3.358 41.643,0 37.5,0 33.357,0 30,3.358 30,7.5 V 70.833 H 7.5 c -4.143,0 -7.5,3.358 -7.5,7.5 0,4.142 3.357,7.5 7.5,7.5 H 30 v 55.833 H 7.5 c -4.143,0 -7.5,3.358 -7.5,7.5 0,4.142 3.357,7.5 7.5,7.5 H 30 V 212.5 H 7.5 c -4.143,0 -7.5,3.358 -7.5,7.5 0,4.142 3.357,7.5 7.5,7.5 H 30 v 55.833 H 7.5 c -4.143,0 -7.5,3.358 -7.5,7.5 0,4.142 3.357,7.5 7.5,7.5 H 30 v 55.833 H 7.5 c -4.143,0 -7.5,3.358 -7.5,7.5 0,4.142 3.357,7.5 7.5,7.5 H 30 V 432.5 c 0,4.142 3.357,7.5 7.5,7.5 h 110.833 v 22.5 c 0,4.142 3.357,7.5 7.5,7.5 4.143,0 7.5,-3.358 7.5,-7.5 V 440 h 173.334 v 22.5 c 0,4.142 3.357,7.5 7.5,7.5 4.143,0 7.5,-3.358 7.5,-7.5 V 440 H 462.5 c 4.143,0 7.5,-3.358 7.5,-7.5 0,-4.142 -3.357,-7.5 -7.5,-7.5 z" />
    <path
       inkscape:connector-curvature="0"
       id="path835"
       d="m 77.5,410 c 4.143,0 7.5,-3.358 7.5,-7.5 v -175 h 63.333 v 175 c 0,4.142 3.357,7.5 7.5,7.5 4.143,0 7.5,-3.358 7.5,-7.5 V 298.333 H 222.5 V 402.5 c 0,4.142 3.357,7.5 7.5,7.5 4.143,0 7.5,-3.358 7.5,-7.5 V 290.833 c 0,-4.142 -3.357,-7.5 -7.5,-7.5 H 163.333 V 220 c 0,-4.142 -3.357,-7.5 -7.5,-7.5 H 77.5 c -4.143,0 -7.5,3.358 -7.5,7.5 v 182.5 c 0,4.142 3.357,7.5 7.5,7.5 z" />
    <path
       inkscape:connector-curvature="0"
       id="path837"
       d="m 270,410 c 4.143,0 7.5,-3.358 7.5,-7.5 V 85.833 h 59.167 V 402.5 c 0,4.142 3.357,7.5 7.5,7.5 4.143,0 7.5,-3.358 7.5,-7.5 V 156.667 H 415 V 402.5 c 0,4.142 3.357,7.5 7.5,7.5 4.143,0 7.5,-3.358 7.5,-7.5 V 149.167 c 0,-4.142 -3.357,-7.5 -7.5,-7.5 H 351.667 V 78.333 c 0,-4.142 -3.357,-7.5 -7.5,-7.5 H 270 c -4.143,0 -7.5,3.358 -7.5,7.5 V 402.5 c 0,4.142 3.357,7.5 7.5,7.5 z" />
  </g>
</svg>
