<?xml version="1.0" encoding="UTF-8" standalone="no"?>
<svg
   xmlns:dc="http://purl.org/dc/elements/1.1/"
   xmlns:cc="http://creativecommons.org/ns#"
   xmlns:rdf="http://www.w3.org/1999/02/22-rdf-syntax-ns#"
   xmlns:svg="http://www.w3.org/2000/svg"
   xmlns="http://www.w3.org/2000/svg"
   xmlns:sodipodi="http://sodipodi.sourceforge.net/DTD/sodipodi-0.dtd"
   xmlns:inkscape="http://www.inkscape.org/namespaces/inkscape"
   inkscape:version="1.0beta1 (32d4812, 2019-09-19)"
   height="120mm"
   width="140mm"
   sodipodi:docname="5publica.svg"
   id="svg869"
   enable-background="new 0 0 470 470"
   viewBox="0 0 529.1339 453.54334"
   version="1.1">
  <metadata
     id="metadata875">
    <rdf:RDF>
      <cc:Work
         rdf:about="">
        <dc:format>image/svg+xml</dc:format>
        <dc:type
           rdf:resource="http://purl.org/dc/dcmitype/StillImage" />
        <dc:title />
      </cc:Work>
    </rdf:RDF>
  </metadata>
  <defs
     id="defs873" />
  <sodipodi:namedview
     inkscape:current-layer="svg869"
     inkscape:window-maximized="0"
     inkscape:window-y="23"
     inkscape:window-x="0"
     inkscape:cy="560"
     inkscape:cx="400"
     inkscape:zoom="0.35"
     showguides="false"
     units="mm"
     showgrid="false"
     id="namedview871"
     inkscape:window-height="907"
     inkscape:window-width="1600"
     inkscape:pageshadow="2"
     inkscape:pageopacity="0"
     guidetolerance="10"
     gridtolerance="10"
     objecttolerance="10"
     borderopacity="1"
     inkscape:document-rotation="0"
     bordercolor="#666666"
     pagecolor="#ffffff" />
  <rect
     y="0"
     x="0"
     height="453.5433"
     width="529.13385"
     id="rect877"
     style="fill:#ffffff;stroke-width:1.5831" />
  <g
     transform="matrix(0.90065336,0,0,0.90065336,52.913385,15.118113)"
     id="g867">
    <path
       inkscape:connector-curvature="0"
       id="path833"
       d="m 235,135.95 c 4.143,0 7.5,-3.358 7.5,-7.5 v -30 c 0,-4.142 -3.357,-7.5 -7.5,-7.5 -4.143,0 -7.5,3.358 -7.5,7.5 v 30 c 0,4.142 3.357,7.5 7.5,7.5 z" />
    <path
       inkscape:connector-curvature="0"
       id="path835"
       d="m 235,358.798 c 4.143,0 7.5,-3.358 7.5,-7.5 V 158.45 c 0,-4.142 -3.357,-7.5 -7.5,-7.5 -4.143,0 -7.5,3.358 -7.5,7.5 v 192.848 c 0,4.142 3.357,7.5 7.5,7.5 z" />
    <path
       inkscape:connector-curvature="0"
       id="path837"
       d="m 462.5,75.527 c -4.143,0 -7.5,3.358 -7.5,7.5 V 397.062 H 263.732 c -3.839,0 -7.414,1.824 -9.675,4.907 l -6.429,7.502 -25.254,0.002 -6.432,-7.502 c -2.265,-3.084 -5.841,-4.909 -9.676,-4.909 H 15 V 83.027 c 0,-4.142 -3.357,-7.5 -7.5,-7.5 -4.143,0 -7.5,3.358 -7.5,7.5 v 321.535 c 0,4.142 3.357,7.5 7.5,7.5 h 197.337 l 8.396,9.793 c 1.425,1.662 3.505,2.618 5.694,2.618 l 32.152,-0.003 c 2.189,0 4.27,-0.957 5.694,-2.62 l 8.389,-9.789 H 462.5 c 4.143,0 7.5,-3.358 7.5,-7.5 V 83.027 c 0,-4.142 -3.357,-7.5 -7.5,-7.5 z" />
    <path
       inkscape:connector-curvature="0"
       id="path839"
       d="m 37.5,382.062 h 168.768 c 9.057,0 17.463,4.509 22.488,12.063 1.391,2.09 3.734,3.346 6.245,3.346 2.51,0 4.854,-1.256 6.244,-3.347 5.022,-7.553 13.429,-12.062 22.487,-12.062 H 432.5 c 4.143,0 7.5,-3.358 7.5,-7.5 V 53.027 c 0,-4.142 -3.357,-7.5 -7.5,-7.5 H 263.732 C 252.916,45.527 242.697,49.661 235,56.9 227.302,49.662 217.084,45.527 206.268,45.527 H 37.5 c -4.143,0 -7.5,3.358 -7.5,7.5 v 321.535 c 0,4.142 3.357,7.5 7.5,7.5 z M 45,60.527 h 161.268 c 9.056,0 17.462,4.514 22.486,12.075 1.39,2.092 3.734,3.349 6.246,3.349 2.512,0 4.856,-1.257 6.247,-3.349 5.023,-7.561 13.429,-12.074 22.485,-12.074 H 425 V 367.063 H 263.732 c -10.817,0 -21.035,4.131 -28.733,11.363 -7.698,-7.232 -17.916,-11.363 -28.731,-11.363 H 45 Z" />
    <path
       inkscape:connector-curvature="0"
       id="path841"
       d="M 195,85.527 H 77.5 c -4.143,0 -7.5,3.358 -7.5,7.5 0,4.142 3.357,7.5 7.5,7.5 H 195 c 4.143,0 7.5,-3.358 7.5,-7.5 0,-4.142 -3.357,-7.5 -7.5,-7.5 z" />
    <path
       inkscape:connector-curvature="0"
       id="path843"
       d="M 195,115.527 H 77.5 c -4.143,0 -7.5,3.358 -7.5,7.5 0,4.142 3.357,7.5 7.5,7.5 H 195 c 4.143,0 7.5,-3.358 7.5,-7.5 0,-4.142 -3.357,-7.5 -7.5,-7.5 z" />
    <path
       inkscape:connector-curvature="0"
       id="path845"
       d="M 195,145.527 H 77.5 c -4.143,0 -7.5,3.358 -7.5,7.5 0,4.142 3.357,7.5 7.5,7.5 H 195 c 4.143,0 7.5,-3.358 7.5,-7.5 0,-4.142 -3.357,-7.5 -7.5,-7.5 z" />
    <path
       inkscape:connector-curvature="0"
       id="path847"
       d="M 195,175.527 H 77.5 c -4.143,0 -7.5,3.358 -7.5,7.5 0,4.142 3.357,7.5 7.5,7.5 H 195 c 4.143,0 7.5,-3.358 7.5,-7.5 0,-4.142 -3.357,-7.5 -7.5,-7.5 z" />
    <path
       inkscape:connector-curvature="0"
       id="path849"
       d="M 195,205.527 H 77.5 c -4.143,0 -7.5,3.358 -7.5,7.5 0,4.142 3.357,7.5 7.5,7.5 H 195 c 4.143,0 7.5,-3.358 7.5,-7.5 0,-4.142 -3.357,-7.5 -7.5,-7.5 z" />
    <path
       inkscape:connector-curvature="0"
       id="path851"
       d="m 77.5,250.527 h 58.75 c 4.143,0 7.5,-3.358 7.5,-7.5 0,-4.142 -3.357,-7.5 -7.5,-7.5 H 77.5 c -4.143,0 -7.5,3.358 -7.5,7.5 0,4.142 3.357,7.5 7.5,7.5 z" />
    <path
       inkscape:connector-curvature="0"
       id="path853"
       d="M 195,265.527 H 77.5 c -4.143,0 -7.5,3.358 -7.5,7.5 v 61.535 c 0,4.142 3.357,7.5 7.5,7.5 H 195 c 4.143,0 7.5,-3.358 7.5,-7.5 v -61.535 c 0,-4.142 -3.357,-7.5 -7.5,-7.5 z m -7.5,61.535 H 85 v -46.535 h 102.5 z" />
    <path
       inkscape:connector-curvature="0"
       id="path855"
       d="m 265,222.062 h 117.5 c 4.143,0 7.5,-3.358 7.5,-7.5 0,-4.142 -3.357,-7.5 -7.5,-7.5 H 265 c -4.143,0 -7.5,3.358 -7.5,7.5 0,4.142 3.357,7.5 7.5,7.5 z" />
    <path
       inkscape:connector-curvature="0"
       id="path857"
       d="m 265,252.062 h 117.5 c 4.143,0 7.5,-3.358 7.5,-7.5 0,-4.142 -3.357,-7.5 -7.5,-7.5 H 265 c -4.143,0 -7.5,3.358 -7.5,7.5 0,4.142 3.357,7.5 7.5,7.5 z" />
    <path
       inkscape:connector-curvature="0"
       id="path859"
       d="m 265,282.062 h 117.5 c 4.143,0 7.5,-3.358 7.5,-7.5 0,-4.142 -3.357,-7.5 -7.5,-7.5 H 265 c -4.143,0 -7.5,3.358 -7.5,7.5 0,4.142 3.357,7.5 7.5,7.5 z" />
    <path
       inkscape:connector-curvature="0"
       id="path861"
       d="m 265,312.062 h 117.5 c 4.143,0 7.5,-3.358 7.5,-7.5 0,-4.142 -3.357,-7.5 -7.5,-7.5 H 265 c -4.143,0 -7.5,3.358 -7.5,7.5 0,4.142 3.357,7.5 7.5,7.5 z" />
    <path
       inkscape:connector-curvature="0"
       id="path863"
       d="m 265,342.062 h 58.75 c 4.143,0 7.5,-3.358 7.5,-7.5 0,-4.142 -3.357,-7.5 -7.5,-7.5 H 265 c -4.143,0 -7.5,3.358 -7.5,7.5 0,4.142 3.357,7.5 7.5,7.5 z" />
    <path
       inkscape:connector-curvature="0"
       id="path865"
       d="m 265,177.062 c -4.143,0 -7.5,3.358 -7.5,7.5 0,4.142 3.357,7.5 7.5,7.5 10.753,0 19.776,-2.708 27.572,-7.136 0.395,-0.187 0.771,-0.404 1.125,-0.654 12.538,-7.501 21.85,-19.482 30.053,-31.738 8.2,12.251 17.508,24.228 30.039,31.729 0.365,0.259 0.754,0.485 1.164,0.676 7.79,4.419 16.806,7.122 27.548,7.122 4.143,0 7.5,-3.358 7.5,-7.5 0,-4.142 -3.357,-7.5 -7.5,-7.5 -6.348,0 -11.895,-1.239 -16.875,-3.451 v -69.633 c 4.98,-2.212 10.527,-3.451 16.875,-3.451 4.143,0 7.5,-3.358 7.5,-7.5 0,-4.142 -3.357,-7.5 -7.5,-7.5 -10.746,0 -19.765,2.705 -27.558,7.127 -0.403,0.19 -0.788,0.412 -1.148,0.667 -12.534,7.501 -21.843,19.479 -30.044,31.732 -8.205,-12.258 -17.518,-24.24 -30.059,-31.741 -0.349,-0.246 -0.72,-0.46 -1.109,-0.644 -7.798,-4.431 -16.824,-7.141 -27.582,-7.141 -4.143,0 -7.5,3.358 -7.5,7.5 0,4.142 3.357,7.5 7.5,7.5 6.348,0 11.895,1.239 16.875,3.451 v 69.633 c -4.981,2.213 -10.528,3.452 -16.876,3.452 z m 85.625,-62.267 v 47.999 c -6.457,-6.591 -12.117,-14.957 -17.957,-23.999 5.84,-9.043 11.5,-17.41 17.957,-24 z m -53.75,0 c 6.457,6.591 12.117,14.957 17.957,23.999 -5.841,9.042 -11.5,17.409 -17.957,23.999 z" />
  </g>
</svg>
